<svg width="40" height="41" viewBox="0 0 40 41" fill="none" xmlns="http://www.w3.org/2000/svg">
<g clip-path="url(#clip0_2039_12)">
<path d="M16.484 12.6091C7.43766 12.6091 7.6818e-07 18.83 7.6818e-07 26.4768C7.6818e-07 29.5334 1.18563 32.6399 3.35992 35.0476L0.289532 38.5563C0.141297 38.7257 0.0450696 38.9342 0.0123937 39.1569C-0.0202823 39.3795 0.0119811 39.6069 0.105313 39.8117C0.198173 40.0167 0.348162 40.1907 0.537322 40.3127C0.726482 40.4346 0.946793 40.4995 1.17188 40.4995H17.6559C24.3352 40.4995 32.968 34.748 32.968 26.4768C32.968 18.83 25.5303 12.6091 16.484 12.6091ZM9.37477 28.6248C8.08274 28.6248 7.03109 27.573 7.03109 26.2811C7.03109 24.9891 8.08281 23.9374 9.37477 23.9374C10.6667 23.9374 11.7184 24.9891 11.7184 26.2811C11.7185 27.573 10.6668 28.6248 9.37477 28.6248ZM16.484 28.6248C15.192 28.6248 14.1403 27.573 14.1403 26.2811C14.1403 24.9891 15.192 23.9374 16.484 23.9374C17.7759 23.9374 18.8277 24.9891 18.8277 26.2811C18.8277 27.573 17.776 28.6248 16.484 28.6248ZM23.5932 28.6248C22.3012 28.6248 21.2495 27.573 21.2495 26.2811C21.2495 24.9891 22.3013 23.9374 23.5932 23.9374C24.8852 23.9374 25.9369 24.9891 25.9369 26.2811C25.9369 27.573 24.8852 28.6248 23.5932 28.6248Z" fill="white"/>
<path d="M39.7163 24.3457L36.9573 21.1266C38.9267 18.9042 39.9991 16.1942 39.9991 13.3906C39.999 6.28282 33.1648 0.500244 24.765 0.500244C17.1693 0.500244 10.7161 5.23376 9.57666 11.3948C11.696 10.6746 14.0728 10.2652 16.484 10.2652C26.746 10.2652 35.177 17.4328 35.3003 26.2809H38.8272C39.8282 26.2809 40.3658 25.1022 39.7163 24.3457Z" fill="white"/>
</g>
<defs>
<clipPath id="clip0_2039_12">
<rect width="40" height="40" fill="white" transform="translate(0 0.5)"/>
</clipPath>
</defs>
</svg>
